<?xml version="1.0" encoding="utf-8"?>
<!-- Generator: Adobe Illustrator 16.0.4, SVG Export Plug-In . SVG Version: 6.00 Build 0)  -->
<!DOCTYPE svg PUBLIC "-//W3C//DTD SVG 1.1//EN" "http://www.w3.org/Graphics/SVG/1.1/DTD/svg11.dtd">
<svg version="1.1" id="形状_1_1_" xmlns="http://www.w3.org/2000/svg" xmlns:xlink="http://www.w3.org/1999/xlink" x="0px"
	 y="0px" width="620px" height="620px" viewBox="0 0 620 620" enable-background="new 0 0 620 620" xml:space="preserve">
<g id="形状_1">
	<g>
		<path fill="#253954" d="M588.949,470.699c-25.328-8.423-78.692-22.054-123.316-50.473c-9.964-6.346-23.459-26.252-30.74-33.105
			c-21.212-19.968-29.806-29.495-60.542-60.056c-35.652-35.447-101.264-84.526-138.978-111.078
			c-2.995-2.109-18.541,46.928-18.541,46.928s6.408-55.761,4.109-57.324c-84.842-57.702-156.986-90.178-188.259-97.257
			c-22.253-5.038-20.111,4.149-11.857,25.844c16.424,43.172,66.609,159.458,153.586,229.707
			c9.292,7.505,29.009,20.717,29.009,20.717l34.704-24.143l-27.634,29.417c0,0,57.186,30.796,109.823,46.233
			c56.583,16.594,109.405,17.94,124.902,18.732c11.252,0.574-0.938-6.156-0.938-6.156c-1.089-1.306-46.245-18.404-54.911-23.117
			c-35.771-19.452-89.774-49.869-148.718-90.693C172.725,287.832,86.665,192.349,75.33,177.42
			c-10.568-13.92-11.337-19.678-1.083-8.667c6.945,7.459,17.777,18.622,29.946,29.46c36.497,32.502,74.036,64.295,74.036,64.295
			s106.961,94.663,229.03,154.029c68.936,33.526,132.731,52.011,169.617,59.665C607.793,482.617,619.899,480.992,588.949,470.699z"
			/>
	</g>
</g>
</svg>
