<?xml version="1.0" encoding="utf-8"?>
<!-- Generator: Adobe Illustrator 16.0.4, SVG Export Plug-In . SVG Version: 6.00 Build 0)  -->
<!DOCTYPE svg PUBLIC "-//W3C//DTD SVG 1.1//EN" "http://www.w3.org/Graphics/SVG/1.1/DTD/svg11.dtd">
<svg version="1.1" id="形状_3_1_" xmlns="http://www.w3.org/2000/svg" xmlns:xlink="http://www.w3.org/1999/xlink" x="0px"
	 y="0px" width="1490px" height="1310px" viewBox="0 0 1490 1310" enable-background="new 0 0 1490 1310" xml:space="preserve">
<g id="形状_3">
	<g>
		<path fill="#FFFFFF" d="M1153.969,1107.447c-35.824-13.642-119.179-64.098-133.298-79.61c0,0,5.401-28.717,7.479-63.101
			c2.879-47.668,3.757-65.678,3.757-65.678s-1.917-9.363-7.551,2.562c-4.975,10.531-10.836,55.225-15.786,71.047
			c-4.459,14.254-8.253,1.962-7.929,4.559c-2.937-19.131,10.795-88.371,4.995-122.59c-7.283-42.966-50.897-83.392-73.199-121.597
			c-3.548-6.076-159.093,156.987-10.688-17.63c4.132-4.861-36.922-48.79-72.396-93.507c-2.145-2.702-22.497-26.729-30.603-35.867
			c-48.601-54.793-136.514-149.348-178.135-199.276c-4.479-5.372-53.164,59.157-56.711,54.619
			c-3.396-4.345,47.938-65.912,45.545-69.357c-84.062-120.997-142.098-246.155-133.795-231.387
			c-11.155-20.279-11.109-5.714-11.109-5.714s-37.958,167.057,0.12,316.812c16.851,66.269,46.252,165.457,76.062,235.02
			c12.739,29.729,21.927,50.125,29.821,65.386c2.963,5.728,36.868-6.435,39.586-1.932c2.99,4.955-29.466,13.93-26.469,17.967
			c18.147,24.438,43.586,50.005,103.118,117.219c6.492,7.331,18.652,16.346,30.869,35.523c12.137,19.052,24.28,48.252,45.917,60.421
			c32.274,18.15,52.339,19.129,81.686,27.97c17.366,5.231,53.024,10.092,57.312,20.713c0,0-17.895,2.876-24.891,5.469
			c-10.878,4.032,8.631,12.941,33.194,11.909c12.959-0.544,33.288-3.994,41.428-7.863c7.708-3.664,3.869-3.746-9.162-12.63
			c-25.136-17.135-93.918-65.624-162.843-128.349c-55.14-50.179-104.98-106.356-150.097-172.952
			C540.993,564.409,515.49,372.052,515.49,372.052s-0.788-22.395,6.223,1.032c11.516,38.48,25.817,118.465,56.86,196.634
			c33.347,83.974,84.844,167.017,137.771,229.264c87.734,103.184,223.646,203.82,335.809,268.569
			C1215.915,1162.089,1204.688,1126.762,1153.969,1107.447z M495.653,140.634c0.187,0.34,0.369,0.663,0.562,1.023
			C495.998,141.254,495.817,140.927,495.653,140.634z"/>
	</g>
</g>
</svg>
